<mxfile host="65bd71144e" modified="2020-11-04T03:10:54.632Z" agent="5.0 (Macintosh; Intel Mac OS X 10_15_7) AppleWebKit/537.36 (KHTML, like Gecko) Code/1.50.1 Chrome/83.0.4103.122 Electron/9.2.1 Safari/537.36" version="13.6.5" etag="Jm3qbPlsSfI7XxcPRgrt">
    <diagram id="3VGHU-YLwqh0xfQgbPiF" name="Page-1">
        <mxGraphModel dx="2650" dy="1433" grid="1" gridSize="10" guides="1" tooltips="1" connect="1" arrows="1" fold="1" page="1" pageScale="1" pageWidth="800" pageHeight="800" math="0" shadow="0">
            <root>
                <mxCell id="0"/>
                <mxCell id="1" parent="0"/>
                <mxCell id="13" style="edgeStyle=orthogonalEdgeStyle;rounded=0;orthogonalLoop=1;jettySize=auto;html=1;exitX=1;exitY=0.5;exitDx=0;exitDy=0;entryX=0;entryY=0.318;entryDx=0;entryDy=0;entryPerimeter=0;endArrow=diamond;endFill=1;fontFamily=Courier;" edge="1" parent="1" source="6" target="5">
                    <mxGeometry relative="1" as="geometry"/>
                </mxCell>
                <mxCell id="2" value="DSAHashTable&lt;K, V&gt;" style="swimlane;fontStyle=0;align=center;verticalAlign=top;childLayout=stackLayout;horizontal=1;startSize=26;horizontalStack=0;resizeParent=1;resizeParentMax=0;resizeLast=0;collapsible=1;marginBottom=0;fontFamily=Courier;" vertex="1" parent="1">
                    <mxGeometry x="330" y="235" width="380" height="330" as="geometry"/>
                </mxCell>
                <mxCell id="3" value="- entries: DSAHashTableEntry&lt;K, V&gt;[]&#10;- count: Integer&#10;- load: Double" style="text;strokeColor=none;fillColor=none;align=left;verticalAlign=top;spacingLeft=4;spacingRight=4;overflow=hidden;rotatable=0;points=[[0,0.5],[1,0.5]];portConstraint=eastwest;fontFamily=Courier;" vertex="1" parent="2">
                    <mxGeometry y="26" width="380" height="54" as="geometry"/>
                </mxCell>
                <mxCell id="4" value="" style="line;strokeWidth=1;fillColor=none;align=left;verticalAlign=middle;spacingTop=-1;spacingLeft=3;spacingRight=3;rotatable=0;labelPosition=right;points=[];portConstraint=eastwest;" vertex="1" parent="2">
                    <mxGeometry y="80" width="380" height="8" as="geometry"/>
                </mxCell>
                <mxCell id="5" value="+ put(K inKey, V inValue): V inValue&#10;+ remove(Object inKey): V removedEntryValue&#10;+ get(Object inKey): V gottenEntryValue&#10;+ getCount(): Integer count&#10;+ getCapacity(): Integer entries.length&#10;+ getLoad(): Double load&#10;+ isEmpty(): Boolean isEmpty&#10;+ toString(): String entriesString&#10;- _put(K inKey, V inValue)&#10;- _remove(int foundEntryHash): V removedEntryValue&#10;- _findEntry(String inKey): Integer hash&#10;- _findNextPrime(Integer start): Integer prime&#10;- _hashKey(String inKeyString): Integer keyHashInt&#10;- _toStep(Integer keyHashInt): Integer step&#10;- _resize(): DSAHashTableEntry&lt;K, V&gt;[] entries&#10;- _addAfterResize(K inKey, V inValue)" style="text;strokeColor=none;fillColor=none;align=left;verticalAlign=top;spacingLeft=4;spacingRight=4;overflow=hidden;rotatable=0;points=[[0,0.5],[1,0.5]];portConstraint=eastwest;fontFamily=Courier;" vertex="1" parent="2">
                    <mxGeometry y="88" width="380" height="242" as="geometry"/>
                </mxCell>
                <mxCell id="6" value="DSAHashTableEntry&lt;A, B&gt;" style="swimlane;fontStyle=0;align=center;verticalAlign=top;childLayout=stackLayout;horizontal=1;startSize=26;horizontalStack=0;resizeParent=1;resizeParentMax=0;resizeLast=0;collapsible=1;marginBottom=0;fontFamily=Courier;" vertex="1" parent="1">
                    <mxGeometry x="90" y="356" width="200" height="88" as="geometry"/>
                </mxCell>
                <mxCell id="7" value="- key: A&#10;- value: B&#10;- state: Integer" style="text;strokeColor=none;fillColor=none;align=left;verticalAlign=top;spacingLeft=4;spacingRight=4;overflow=hidden;rotatable=0;points=[[0,0.5],[1,0.5]];portConstraint=eastwest;fontFamily=Courier;" vertex="1" parent="6">
                    <mxGeometry y="26" width="200" height="54" as="geometry"/>
                </mxCell>
                <mxCell id="8" value="" style="line;strokeWidth=1;fillColor=none;align=left;verticalAlign=middle;spacingTop=-1;spacingLeft=3;spacingRight=3;rotatable=0;labelPosition=right;points=[];portConstraint=eastwest;" vertex="1" parent="6">
                    <mxGeometry y="80" width="200" height="8" as="geometry"/>
                </mxCell>
            </root>
        </mxGraphModel>
    </diagram>
</mxfile>